<?xml version="1.0" encoding="UTF-8"?>
<svg id="Layer_2" data-name="Layer 2" xmlns="http://www.w3.org/2000/svg" viewBox="0 0 328.5 286.26">
  <defs>
    <style>
      .cls-1 {
        fill: #3892f0;
      }

      .cls-2 {
        fill: #3096f2;
      }

      .cls-3 {
        fill: #fff;
      }

      .cls-4 {
        fill: #1da8f7;
      }

      .cls-5 {
        fill: #16aff9;
      }

      .cls-6 {
        fill: #fefeff;
      }

      .cls-7 {
        fill: #0cbafc;
      }

      .cls-8 {
        fill: #040d28;
      }

      .cls-9 {
        fill: #3d8dee;
      }

      .cls-10 {
        fill: #2a9bf3;
      }

      .cls-11 {
        fill: #3590f0;
      }

      .cls-12 {
        fill: #2e9af2;
      }

      .cls-13 {
        fill: #12b4fb;
      }

      .cls-14 {
        fill: #20a7f7;
      }

      .cls-15 {
        fill: #3393f0;
      }

      .cls-16 {
        fill: #18b0f9;
      }

      .cls-17 {
        fill: #23a2f5;
      }

      .cls-18 {
        fill: #4187ec;
      }

      .cls-19 {
        fill: #18acf8;
      }

      .cls-20 {
        fill: #10b6fb;
      }

      .cls-21 {
        fill: #1aabf8;
      }
    </style>
  </defs>
  <g id="Layer_2-2" data-name="Layer 2">
    <path class="cls-11" d="m220.5,215.9c-7.7,6.8-17,10.5-26.7,13.4-12.9,3.8-26.2,4.2-39.6,4.3-16.1.2-30.7-4.6-44.9-11.2-3-1.4-5.4-3.7-8.1-5.6.3-3,2.7-2.4,4.6-2.4,21.7,0,43.4-.1,65.1,0,16.6.1,33.1.5,49.7.7-.1.2-.1.5-.1.8Z"/>
    <path class="cls-19" d="m219,71.4v10.5c-9.4,0-18.9-.1-28.3.1-1.4,0-2.7,1.1-4.1,1.6-7.1-.8-14.2-2.1-21.3-2.4-11-.5-21.8.8-32.1,5.2-1.4.6-2.9,1.1-4.4,1.7-.2.2-.5.3-.7.5-1,.5-2,1-2.9,1.5-1.7-.5-3.5-1.4-5.2-1.5-12.6-.1-25.2-.1-37.9-.1,4.2-7.1,10-12.6,16.6-17.3,2.2.1,4.5.2,6.7.2,38,0,75.8,0,113.6,0Z"/>
    <path class="cls-5" d="m219,71.4h-113.5c-2.2,0-4.5-.1-6.7-.2,10.5-8.5,22.8-13.2,35.8-16.2,1.2-.3,2.4-.6,3.6-.7,4.9-.6,9.8-1.1,14.7-1.6h3c15.7-.4,31,1.8,45.7,7.5.2.2.5.4.7.6,5.1,2.6,10.3,5.2,15.3,7.9.9.4,1,1.8,1.4,2.7Z"/>
    <path class="cls-15" d="m220.4,215.1c-16.6-.3-33.1-.6-49.7-.7-21.7-.1-43.4,0-65.1,0-1.9,0-4.2-.6-4.6,2.4-6.9-4.3-12.7-9.8-17.3-16.6,2.1-.3,4.2-.7,6.2-.7,11.4-.1,22.9,0,34.3-.1,1.3,0,2.5-.5,3.8-.8,3.7,1.3,7.4,2.7,11.1,3.8,11.3,3.4,22.9,3.2,34.6,2.9.5-.2,1-.4,1.5-.6,4-.6,8-1.1,11.9-1.7,2.6,0,5.2.1,7.9.1h25.9v12s-.2,0-.5,0Z"/>
    <path class="cls-3" d="m181.09,123.4v-.1c-.6.2-1.4.2-2,.4.6-.6.95-1.38,1.55-1.98.5-.3,1.05-.52,1.55-.82-.5.8-.6,1.7-1.1,2.5Z"/>
    <path class="cls-3" d="m182.39,144.3c.1,7.2.1,14.4,0,21.6,0,4.5-.9,5.4-5.4,5.4-10,0-19.9.1-29.9-.1-1.2,0-2.4-1-3.6-1.6.4-2,.9-4.1,1.3-6.1.3-.2-.3.2,0,0l.8-.8c8.4,0,16.8.1,25.2.1.6,0,1.3-.4,1.9-.7.3-.5.6-1,.8-1.5.06-.07.11-.15.17-.23.01.14.02.29.03.43,1.5-1.8,2-8.7.6-10.2-.03-.03-.06-.05-.09-.06-.03-.05-.07-.1-.11-.14-.3-.3-.9-.2-1.4-.3-.4-.5-.8-.9-1.2-1.4-.11-.06-.22-.13-.32-.2.17.1.34.2.52.3-.6-.4-1.3-.9-2-1.3.13.11.27.21.41.32-.21-.15-.42-.29-.61-.42l.1-.19c.07,0,.13-.01.2-.01-1.3-.2-2.6-.7-3.9-.7h-.2c-7.13-.1-14.27,0-21.5,0h-.2c-.2-.5-.5-1-.7-1.5v-27.7c1-.6,1.9-1.9,2.9-1.9,11.3,0,22.6.1,33.8.2.3.3.6.6.9.8.4,1.5.9,3,1.3,4.5-.5.3-.9.5-1.4.8-.6.7-1.1,1.3-1.7,2-7.6,0-15.2.1-22.8,0-3.5,0-5.4,1-4.9,4.9.3,2,.2,4,0,6-.2,3.2,1.3,4.5,4.4,4.5,7.2-.1,14.5,0,21.7,0,1.1,0,2.1.4,3.2.6.38.22.58.45.75.63.05.06.1.12.15.17.3,1.3.8,2.5.8,3.8Z"/>
    <path class="cls-3" d="m169.59,147.21h0c-1.3-.21-2.6-.71-3.9-.71h.2c1.3,0,2.6.5,3.9.7-.07,0-.13.01-.2.01Z"/>
    <path class="cls-3" d="m169.69,147.5c.7.4,1.4.9,2,1.3-.18-.1-.35-.2-.52-.3-.07-.04-.14-.08-.2-.12-.18-.1-.35-.22-.52-.33-.12-.07-.24-.15-.35-.23-.14-.11-.28-.21-.41-.32Z"/>
    <path class="cls-3" d="m173.69,160.8c-.01-.14-.02-.29-.03-.43,1.32-2.03,1.75-8.14.54-9.83.03.01.06.03.09.06,1.4,1.5.9,8.4-.6,10.2Z"/>
    <path class="cls-17" d="m102.1,116.3c-1.1,4.2-2.9,8.5-3.1,12.7-.2,6.5-2.7,12.8-1.7,19.4-6.3,0-12.6-.2-18.9.1-4.1.2-8.2.9-12.3,1.4-1-11.4-.3-22.7,3.1-33.7,10.9.1,21.9.1,32.9.1Z"/>
    <path class="cls-4" d="m102.1,116.3h-33c2.7-10,6.2-19.7,13.1-27.8,12.6,0,25.2,0,37.9.1,1.7,0,3.5,1,5.2,1.5-10.6,6.2-17.8,15.5-23.2,26.2Z"/>
    <path class="cls-3" d="m275.9,170.3c-2,.1-3.9.3-5.9.4-.5,0-.8-.3-.8-.8v-38.6c0-1.3-.4-2.5-.7-3.8v-1.1c-.4-.5-.7-1-1.1-1.5-1.4-.5-2.8-1.1-4.2-1.2-4.2-.2-8.5.1-12.7-.1-3.4-.2-4.4,1.3-4.3,4.4.1,12,0,24.1,0,36.1,0,6.7,0,6.9-6.4,6.6-.5-.4-1-.8-1.5-1.3l-.3-1.3c-.1-.3,0-.5.2-.7.7-.7,1.6-1.4,1.6-2,.1-14.6.1-29.3,0-43.9,0-.7-1-1.4-1.7-2-.2-.2-.3-.4-.2-.7.1-.7.2-1.3.3-2,.5-.5.9-.8,1.5-1.3,10.6-.2,21.3-.4,31.9-.5,4.2-.1,4.9.8,4.9,5,0,15.7.1,31.4.1,47.1v2.3"/>
    <path class="cls-3" d="m289.9,142.7c0-8,.1-16-.1-23.9-.1-2.8,1.2-3.7,3.7-3.7h31.5c3.2,0,3.5,1.8,3.5,4.4,0,2.8-1,4.2-3.9,4.1-7.4-.1-14.7.1-22.1-.1-3.2-.1-4.4,1.1-4.4,4.3.2,10.1.2,20.2,0,30.3-.1,3.7,1.3,4.7,4.8,4.6,7-.2,14,0,21-.1,3,0,4.6.9,4.6,4.2s-1.2,4.3-4.4,4.2c-9.9-.2-19.7-.2-29.6,0-3.7.1-4.8-1.3-4.7-4.8.2-7.8.1-15.6.1-23.5Z"/>
    <path class="cls-10" d="m66.1,150c4.1-.5,8.2-1.3,12.3-1.4,6.3-.2,12.6-.1,18.9-.1,1.4,10.5,3.5,20.8,9.2,29.9-9.1-.2-18.1-.7-27.2-.6-2.2,0-4.5,1.9-6.7,2.9-3.8-9.9-6.8-20-6.5-30.7Z"/>
    <path class="cls-3" d="m223.79,115.7c2.2-.1,3,1,3,3.2-.1,8.5,0,16.9,0,25.4,0,2.5-1.2,4-3.9,3.7h-.4q-9.2.1-9.2,9.2v10.5c0,3.5-2.3,3.4-4.8,3.6-2.5.1-3.6-.7-3.6-3.4.1-5.2,0-10.5.1-15.7.1-3-1-4.3-4.1-4.2-10.4.3-9.3.5-9.3-9.5,0-6.4.1-12.7-.1-19.1-.1-3.1,1.1-3.8,4-3.7,2.6.1,4.7-.1,4.5,3.6-.2,5.5,0,11-.1,16.4,0,2.3.7,3.4,3.2,3.3,3.9-.2,7.7-.1,11.6,0,2.7.1,3.9-1.2,3.8-3.8v-16.8c0-1.7.2-3,2.3-2.7h3Z"/>
    <path class="cls-2" d="m72.6,180.7c2.2-1,4.4-2.8,6.7-2.9,9.1-.1,18.1.3,27.2.6,5.8,8.2,13.5,14.5,21.7,20.1-1.3.3-2.5.8-3.8.8-11.4.1-22.9,0-34.3.1-2.1,0-4.2.5-6.2.7-5.1-5.7-8.7-12.3-11.3-19.4Z"/>
    <path class="cls-7" d="m161.9,25.1c-3.1-3-6.3-6-9.3-9.1-6.1-6.1-14-6.2-20.1-.1-2.7,2.7-5.4,5.5-8,8.3-2.5,2.3-5,4.6-7.4,6.9.2-2.1-1.1-2.3-2.8-2.4-3.1-.1-6.2-.5-9.3-.8,7.7-7.5,15.2-15.4,23.2-22.5,7.2-6.3,15.6-6.9,24.2-2.8,1.4.7,2.8,1.5,4.2,2.2.3.2.6.4.8.6,4,3.8,8,7.7,12,11.5,2,1.8,4,3.6,6,5.4.2.4.4.7.6,1.1-3.4.1-6.9,0-10.3.3-1.3,0-2.5.9-3.8,1.4Z"/>
    <path class="cls-18" d="m126.7,263c3.2,3,6.5,5.7,9.4,8.9,4.6,5.1,14.9,2.4,18.4-2,3.5-4.2,7.8-7.8,11.8-11.6,1.8.3,3.6.5,5.3.8,2.6.5,5.1,1,7.7,1.6-7,6.8-13.7,14-21.1,20.4-8.6,7.3-21.1,6.7-29.3-.9-5.9-5.3-11.5-11-17.2-16.4.7-2.3,2.4-2.3,4.4-2.4,2.4-.2,4.9-.9,7.3-1.3,1,1,2.2,1.9,3.3,2.9Z"/>
    <path class="cls-13" d="m104.9,27.9c3.1.3,6.2.7,9.3.8,1.7.1,2.9.3,2.8,2.4-1.5,1.7-3.1,3.4-4.6,5.1-7.5,7.5-14.9,15-22.4,22.6-.4-2.9-2.6-2.9-4.9-3.2-1.9-.2-4.5,1.5-5.7-1.5,8.5-8.8,17-17.5,25.5-26.2Z"/>
    <path class="cls-9" d="m123.3,260.1c-2.4.5-4.8,1.2-7.3,1.3-2,.1-3.7.2-4.4,2.4-7.8-7.7-15.6-15.4-23.3-23.1-1.4-1.4-2.9-2.6-4.3-3.9,1.6-.5,3.1-1.1,4.7-1.5,2.7-.6,5.4-1.1,8-1.6,7,6.8,13.9,13.5,20.9,20.3,1.9,2,3.8,4,5.7,6.1Z"/>
    <path class="cls-20" d="m161.9,25.1c1.2-.5,2.5-1.4,3.8-1.5,3.4-.3,6.9-.2,10.3-.3,9.1,9.1,18.2,18.1,27.2,27.2-.3.1-.5.1-.8.2-6.4-1.8-12.9-3.5-19.3-5.4-.9-.3-1.9-.7-2.5-1.3-6.3-6.3-12.5-12.6-18.7-18.9Z"/>
    <path class="cls-1" d="m96.7,233.7c-2.7.5-5.4,1-8,1.6-1.6.4-3.1,1-4.7,1.5-8.1-8.1-16.2-16.2-24.2-24.2,1.2-.6,2.4-1.8,3.5-1.8,3.5-.1,7.1.3,10.6.5,7.6,7.4,15.2,14.9,22.8,22.4Z"/>
    <path class="cls-2" d="m230.2,208.1v-13.7c0-.8.4-1.7.9-2.3,4-4.1,8.1-8.1,12.3-12,.8-.8,2.1-1.5,3.2-1.6,4.2-.2,8.4-.1,13.1.8-9.5,9.8-19,19.6-28.4,29.4-.4-.2-.8-.4-1.1-.6Z"/>
    <path class="cls-16" d="m79.4,54.1c1.2,3,3.8,1.3,5.7,1.5,2.3.2,4.5.2,4.9,3.2-7.2,7.2-14.5,14.4-21.7,21.7-1.9-1.8-3.9-2.5-6.6-1.8-2.2.6-4.7.2-7,.2,8.2-8.4,16.5-16.6,24.7-24.8Z"/>
    <path class="cls-10" d="m11.1,144.7c.9,2.2,1.3,4.8,2.8,6.5,5.7,6.2,11.7,12.2,17.6,18.2-3.8-.2-7.7-.5-11.5-.7-1.7-.1-3,.2-2.9,2.4-6.2-6-13.4-11.4-16.1-20.2-.5-1.7-.7-3.5-1-5.3,3.7-.4,7.4-.6,11.1-.9Z"/>
    <path class="cls-2" d="m73.9,211.2c-3.5-.2-7.1-.6-10.6-.5-1.2,0-2.4,1.2-3.5,1.8-1.7-1.4-3.3-2.8-5-4.2-3.7-3.8-7.5-7.6-11.2-11.4-1.9-2-3.7-4-5.6-6,1.2-.7,2.3-1.8,3.5-1.9,3.2-.3,6.4-.1,9.6-.1,7.6,7.4,15.2,14.9,22.8,22.3Z"/>
    <path class="cls-17" d="m11.1,144.7c-3.7.2-7.3.5-11,.7-.6-7.1,2.1-13,6.6-18.2,2.5-2.9,5.5-5.4,8.2-8.1,2.5.3,5.1.3,7.5.8,1.6.4,3,1.5,4.5,2.2-3.8,4.1-7.4,8.4-11.4,12.3-2.9,3.1-4.4,6.3-4.4,10.3Z"/>
    <path class="cls-14" d="m27,122.3c-1.5-.8-2.9-1.9-4.5-2.2-2.5-.6-5-.6-7.5-.8,7-7.2,14-14.5,21-21.7,2.5,3.1,5.9,1.2,8.9,1.4,2.4.2,3.4.8,3.1,3.2-7,6.7-14,13.4-21,20.1Z"/>
    <path class="cls-9" d="m179.2,260.8c-2.5-.5-5.1-1.1-7.7-1.6-1.8-.3-3.5-.6-5.3-.8,4.8-5.1,9.5-10.5,14.6-15.3,1.9-1.7,5-2.1,7.7-2.8,4.6-1.3,9.2-2.4,13.8-3.5-.4.7-.9,1.5-1.3,2.2-7.2,7.3-14.5,14.5-21.8,21.8Z"/>
    <path class="cls-12" d="m51,188.8c-3.2,0-6.4-.2-9.6.1-1.2.1-2.3,1.3-3.5,1.9-2.9-2.5-5.8-4.9-8.5-7.5-4.2-4-8.2-8.2-12.2-12.4-.2-2.1,1.1-2.5,2.9-2.4,3.8.3,7.7.5,11.5.7,6.4,6.7,12.9,13.2,19.4,19.6Z"/>
    <path class="cls-21" d="m48,102.2c.3-2.4-.8-3-3.1-3.2-3-.2-6.4,1.7-8.9-1.4,6.2-6.2,12.5-12.5,18.7-18.7,2.3,0,4.8.3,7-.2,2.8-.7,4.7,0,6.6,1.8-5.4,5.7-10.8,11.4-16.1,17.1-1.5,1.4-2.8,3-4.2,4.6Z"/>
    <path class="cls-4" d="m260.9,108c-4.1,0-8.2.1-12.3,0-1.4-.1-3-.5-4-1.4-5.2-4.9-10.2-9.9-15.3-14.9.1-1.2.2-2.4.3-3.9h11.7c6.5,6.5,13.1,13,19.6,19.5.1.2.1.5,0,.7Z"/>
    <path class="cls-21" d="m186.6,83.6c1.4-.6,2.7-1.6,4.1-1.6,9.4-.1,18.9-.1,28.3-.1v17.5c-9.6-8.5-20.9-12.4-32.4-15.8Z"/>
    <path class="cls-2" d="m221.1,203.1h-25.9c-2.6,0-5.2-.1-7.9-.1,9.5-2.7,18.8-6.1,26.9-11.9,2.1-1.5,4.1-3,6.8-5,.1,6.1.1,11.5.1,17Z"/>
    <path class="cls-3" d="m237.9,119.3c.7.8,1.9,1.6,1.9,2.3.1,14.6.1,29.3,0,43.9,0,.8-1.3,1.6-1.9,2.4v-48.6Z"/>
    <path class="cls-19" d="m241.5,87.8h-11.7c-.1,1.5-.2,2.7-.3,3.9-.5-.4-1.3-.8-1.3-1.2-.1-5-.1-10-.1-15.1.3-.2.7-.3,1-.5,4.1,4.3,8.2,8.6,12.4,12.9Z"/>
    <path class="cls-3" d="m169.79,147.2c-.07,0-.13.01-.2.01-7.33.3-14.67.59-22,.69-1.1.1-2.3-.9-3.4-1.4h21.7c1.3,0,2.6.5,3.9.7Z"/>
    <path class="cls-3" d="m173.53,161.14c-.01-.14-.2-1.74-.21-1.88-.29-3.45-.48-6.81-.77-10.07.45.09.99.02,1.31.24.03.01.06.03.09.06,1.81,1.5,1.4,9.85-.42,11.65Z"/>
    <path class="cls-3" d="m171.69,148.8c-.18-.1-.35-.2-.52-.3-.07-.04-.14-.08-.2-.12-.18-.1-.35-.22-.52-.33-.12-.07-.24-.15-.35-.23-.14-.11-.28-.21-.41-.32.7.4,1.4.9,2,1.3Z"/>
    <path class="cls-3" d="m238.4,170.2c.3.2.5.4.8.6-.3-.2-.5-.4-.8-.6Z"/>
    <path class="cls-3" d="m275.9,170.3c.6-.1,1.3-1,.5-.9-.3,0-.3.6-.5.9Z"/>
    <path class="cls-3" d="m268.2,125.3c.1.2.2.4.2.7-.1-.2-.2-.4-.2-.7Z"/>
    <path class="cls-2" d="m220.4,215.1h.7c-.2.3-.4.6-.7.8.1-.3.1-.6,0-.8Z"/>
    <path class="cls-6" d="m157.4,5.3c-.3-.2-.6-.4-.8-.6.3.2.5.4.8.6Z"/>
    <path class="cls-8" d="m239.2,115.6c-.3.2-.5.4-.8.6.3-.2.5-.4.8-.6Z"/>
  </g>
</svg>